# xmcd
#
# Track frame offsets: 
#        150
#        28725
#        57325
#        91645
#        111674
#        140889
#        161265
#
# Disc length: 2417 seconds
#
# Revision: 0
# Processed by: cddbd v1.5.2PL0 Copyright (c) Steve Scherf et al.
# Submitted via: ExactAudioCopy v1.0b3
#
DISCID=5c096f07
DTITLE=High on Fire - Spitting Fire Live Vol. 1
DYEAR=2013
DGENRE=Metal
TTITLE0=Serums of Liao
TTITLE1=Frost Hammer
TTITLE2=10,000 Years
TTITLE3=Devilution
TTITLE4=Last
TTITLE5=Fertile Green
TTITLE6=Speedwolf
EXTD=
EXTT0=
EXTT1=
EXTT2=
EXTT3=
EXTT4=
EXTT5=
EXTT6=
PLAYORDER=
